# xmcd
#
# Track frame offsets: 
#        150
#        26266
#        40325
#        73765
#        96784
#        118518
#        135402
#        151805
#        168689
#        194043
#        208048
#        249233
#        265077
#        277580
#        312332
#
# Disc length: 4474 seconds
#
# Revision: 0
# Processed by: cddbd v1.5.2PL0 Copyright (c) Steve Scherf et al.
# Submitted via: ExactAudioCopy v0.99pb5
#
DISCID=cb11780f
DTITLE=Blues Traveler - The Definitive Collection [CD2of2)
DYEAR=2014
DGENRE=Blues-Rock
TTITLE0=Trina magna
TTITLE1=Save his soul
TTITLE2=Fledgling
TTITLE3=The mountains win again
TTITLE4=Hook
TTITLE5=100 years
TTITLE6=Girl inside my head
TTITLE7=Mulling it over
TTITLE8=Great big world
TTITLE9=Just for me
TTITLE10=Mountain cry
TTITLE11=Optimistic thought
TTITLE12=You're burning me
TTITLE13=Sweet pain
TTITLE14=Conquer me
EXTD=
EXTT0=
EXTT1=
EXTT2=
EXTT3=
EXTT4=
EXTT5=
EXTT6=
EXTT7=
EXTT8=
EXTT9=
EXTT10=
EXTT11=
EXTT12=
EXTT13=
EXTT14=
PLAYORDER=
